<svg width="24" height="24" viewBox="0 0 24 24" fill="none" xmlns="http://www.w3.org/2000/svg">
<circle cx="12" cy="8" r="3.25" stroke="currentColor" stroke-width="1.5"/>
<path d="M19.0263 18.2053C19.1449 18.6712 18.7605 19.25 18.0015 19.25H17.9929H17.9843H17.9756H17.967H17.9583H17.9496H17.941H17.9323H17.9235H17.9148H17.906H17.8973H17.8885H17.8797H17.8709H17.8621H17.8532H17.8444H17.8355H17.8266H17.8177H17.8088H17.7998H17.7909H17.7819H17.7729H17.7639H17.7549H17.7459H17.7369H17.7278H17.7187H17.7097H17.7006H17.6914H17.6823H17.6732H17.664H17.6548H17.6457H17.6365H17.6272H17.618H17.6088H17.5995H17.5902H17.5809H17.5716H17.5623H17.553H17.5436H17.5342H17.5249H17.5155H17.5061H17.4966H17.4872H17.4778H17.4683H17.4588H17.4493H17.4398H17.4303H17.4207H17.4112H17.4016H17.392H17.3824H17.3728H17.3632H17.3536H17.3439H17.3343H17.3246H17.3149H17.3052H17.2955H17.2857H17.276H17.2662H17.2564H17.2466H17.2368H17.227H17.2172H17.2073H17.1975H17.1876H17.1777H17.1678H17.1579H17.1479H17.138H17.128H17.1181H17.1081H17.0981H17.0881H17.078H17.068H17.058H17.0479H17.0378H17.0277H17.0176H17.0075H16.9973H16.9872H16.977H16.9669H16.9567H16.9465H16.9362H16.926H16.9158H16.9055H16.8953H16.885H16.8747H16.8644H16.854H16.8437H16.8334H16.823H16.8126H16.8022H16.7918H16.7814H16.771H16.7606H16.7501H16.7396H16.7292H16.7187H16.7082H16.6976H16.6871H16.6766H16.666H16.6554H16.6449H16.6343H16.6236H16.613H16.6024H16.5917H16.5811H16.5704H16.5597H16.549H16.5383H16.5276H16.5169H16.5061H16.4954H16.4846H16.4738H16.463H16.4522H16.4414H16.4305H16.4197H16.4088H16.398H16.3871H16.3762H16.3653H16.3543H16.3434H16.3325H16.3215H16.3105H16.2996H16.2886H16.2775H16.2665H16.2555H16.2445H16.2334H16.2223H16.2113H16.2002H16.1891H16.1779H16.1668H16.1557H16.1445H16.1334H16.1222H16.111H16.0998H16.0886H16.0774H16.0661H16.0549H16.0436H16.0323H16.0211H16.0098H15.9985H15.9872H15.9758H15.9645H15.9531H15.9418H15.9304H15.919H15.9076H15.8962H15.8848H15.8733H15.8619H15.8504H15.839H15.8275H15.816H15.8045H15.793H15.7815H15.7699H15.7584H15.7468H15.7353H15.7237H15.7121H15.7005H15.6889H15.6773H15.6656H15.654H15.6423H15.6306H15.619H15.6073H15.5956H15.5839H15.5721H15.5604H15.5487H15.5369H15.5251H15.5134H15.5016H15.4898H15.478H15.4661H15.4543H15.4425H15.4306H15.4187H15.4069H15.395H15.3831H15.3712H15.3593H15.3473H15.3354H15.3234H15.3115H15.2995H15.2875H15.2755H15.2635H15.2515H15.2395H15.2275H15.2154H15.2034H15.1913H15.1792H15.1671H15.155H15.1429H15.1308H15.1187H15.1066H15.0944H15.0823H15.0701H15.0579H15.0457H15.0335H15.0213H15.0091H14.9969H14.9846H14.9724H14.9601H14.9479H14.9356H14.9233H14.911H14.8987H14.8864H14.8741H14.8617H14.8494H14.837H14.8247H14.8123H14.7999H14.7875H14.7751H14.7627H14.7503H14.7378H14.7254H14.7129H14.7005H14.688H14.6755H14.663H14.6505H14.638H14.6255H14.613H14.6004H14.5879H14.5753H14.5628H14.5502H14.5376H14.525H14.5124H14.4998H14.4872H14.4745H14.4619H14.4492H14.4366H14.4239H14.4112H14.3985H14.3859H14.3731H14.3604H14.3477H14.335H14.3222H14.3095H14.2967H14.284H14.2712H14.2584H14.2456H14.2328H14.22H14.2072H14.1943H14.1815H14.1687H14.1558H14.1429H14.1301H14.1172H14.1043H14.0914H14.0785H14.0656H14.0527H14.0397H14.0268H14.0138H14.0009H13.9879H13.9749H13.9619H13.9489H13.9359H13.9229H13.9099H13.8969H13.8839H13.8708H13.8578H13.8447H13.8316H13.8186H13.8055H13.7924H13.7793H13.7662H13.7531H13.7399H13.7268H13.7137H13.7005H13.6874H13.6742H13.661H13.6478H13.6347H13.6215H13.6083H13.595H13.5818H13.5686H13.5554H13.5421H13.5289H13.5156H13.5023H13.4891H13.4758H13.4625H13.4492H13.4359H13.4226H13.4092H13.3959H13.3826H13.3692H13.3559H13.3425H13.3292H13.3158H13.3024H13.289H13.2756H13.2622H13.2488H13.2354H13.222H13.2085H13.1951H13.1816H13.1682H13.1547H13.1413H13.1278H13.1143H13.1008H13.0873H13.0738H13.0603H13.0468H13.0332H13.0197H13.0062H12.9926H12.9791H12.9655H12.9519H12.9384H12.9248H12.9112H12.8976H12.884H12.8704H12.8568H12.8431H12.8295H12.8159H12.8022H12.7886H12.7749H12.7613H12.7476H12.7339H12.7202H12.7065H12.6928H12.6791H12.6654H12.6517H12.638H12.6243H12.6105H12.5968H12.583H12.5693H12.5555H12.5417H12.528H12.5142H12.5004H12.4866H12.4728H12.459H12.4452H12.4314H12.4175H12.4037H12.3899H12.376H12.3622H12.3483H12.3345H12.3206H12.3067H12.2928H12.279H12.2651H12.2512H12.2373H12.2233H12.2094H12.1955H12.1816H12.1677H12.1537H12.1398H12.1258H12.1119H12.0979H12.0839H12.07H12.056H12.042H12.028H12.014H12H11.986H11.972H11.958H11.944H11.93H11.9161H11.9021H11.8881H11.8742H11.8602H11.8463H11.8323H11.8184H11.8045H11.7906H11.7767H11.7627H11.7488H11.7349H11.721H11.7072H11.6933H11.6794H11.6655H11.6517H11.6378H11.624H11.6101H11.5963H11.5825H11.5686H11.5548H11.541H11.5272H11.5134H11.4996H11.4858H11.472H11.4583H11.4445H11.4307H11.417H11.4032H11.3895H11.3757H11.362H11.3483H11.3346H11.3209H11.3072H11.2935H11.2798H11.2661H11.2524H11.2387H11.2251H11.2114H11.1978H11.1841H11.1705H11.1569H11.1432H11.1296H11.116H11.1024H11.0888H11.0752H11.0616H11.0481H11.0345H11.0209H11.0074H10.9938H10.9803H10.9668H10.9532H10.9397H10.9262H10.9127H10.8992H10.8857H10.8722H10.8587H10.8453H10.8318H10.8184H10.8049H10.7915H10.778H10.7646H10.7512H10.7378H10.7244H10.711H10.6976H10.6842H10.6708H10.6575H10.6441H10.6308H10.6174H10.6041H10.5908H10.5774H10.5641H10.5508H10.5375H10.5242H10.5109H10.4977H10.4844H10.4711H10.4579H10.4446H10.4314H10.4182H10.405H10.3917H10.3785H10.3653H10.3522H10.339H10.3258H10.3126H10.2995H10.2863H10.2732H10.2601H10.2469H10.2338H10.2207H10.2076H10.1945H10.1814H10.1684H10.1553H10.1422H10.1292H10.1161H10.1031H10.0901H10.0771H10.0641H10.0511H10.0381H10.0251H10.0121H9.99913H9.98617H9.97322H9.96028H9.94735H9.93442H9.92151H9.9086H9.8957H9.88281H9.86993H9.85706H9.84419H9.83134H9.81849H9.80565H9.79282H9.78H9.76719H9.75439H9.7416H9.72881H9.71604H9.70327H9.69051H9.67776H9.66502H9.65229H9.63957H9.62685H9.61415H9.60145H9.58877H9.57609H9.56342H9.55076H9.53811H9.52547H9.51284H9.50022H9.48761H9.475H9.46241H9.44983H9.43725H9.42468H9.41213H9.39958H9.38704H9.37451H9.36199H9.34948H9.33698H9.32449H9.31201H9.29954H9.28708H9.27462H9.26218H9.24975H9.23732H9.22491H9.2125H9.20011H9.18772H9.17535H9.16298H9.15063H9.13828H9.12594H9.11362H9.1013H9.08899H9.07669H9.06441H9.05213H9.03986H9.02761H9.01536H9.00312H8.99089H8.97868H8.96647H8.95427H8.94208H8.92991H8.91774H8.90558H8.89344H8.8813H8.86917H8.85706H8.84495H8.83286H8.82077H8.8087H8.79663H8.78458H8.77254H8.7605H8.74848H8.73647H8.72446H8.71247H8.70049H8.68852H8.67656H8.66461H8.65267H8.64074H8.62883H8.61692H8.60502H8.59313H8.58126H8.5694H8.55754H8.5457H8.53387H8.52204H8.51023H8.49843H8.48664H8.47486H8.4631H8.45134H8.4396H8.42786H8.41614H8.40442H8.39272H8.38103H8.36935H8.35768H8.34602H8.33438H8.32274H8.31112H8.2995H8.2879H8.27631H8.26473H8.25316H8.24161H8.23006H8.21852H8.207H8.19549H8.18399H8.1725H8.16102H8.14955H8.1381H8.12665H8.11522H8.1038H8.09239H8.08099H8.06961H8.05823H8.04687H8.03552H8.02418H8.01285H8.00153H7.99023H7.97893H7.96765H7.95638H7.94512H7.93388H7.92264H7.91142H7.90021H7.88901H7.87782H7.86664H7.85548H7.84433H7.83319H7.82206H7.81095H7.79984H7.78875H7.77767H7.7666H7.75555H7.7445H7.73347H7.72245H7.71144H7.70045H7.68947H7.6785H7.66754H7.65659H7.64566H7.63474H7.62383H7.61293H7.60204H7.59117H7.58031H7.56946H7.55863H7.54781H7.537H7.5262H7.51541H7.50464H7.49388H7.48313H7.4724H7.46168H7.45097H7.44027H7.42958H7.41891H7.40825H7.39761H7.38697H7.37635H7.36574H7.35515H7.34457H7.334H7.32344H7.3129H7.30236H7.29185H7.28134H7.27085H7.26037H7.2499H7.23945H7.22901H7.21858H7.20817H7.19777H7.18738H7.177H7.16664H7.15629H7.14596H7.13564H7.12533H7.11503H7.10475H7.09448H7.08422H7.07398H7.06375H7.05353H7.04333H7.03314H7.02297H7.01281H7.00266H6.99252H6.9824H6.97229H6.9622H6.95211H6.94205H6.93199H6.92195H6.91193H6.90191H6.89191H6.88193H6.87195H6.862H6.85205H6.84212H6.8322H6.8223H6.81241H6.80253H6.79267H6.78282H6.77299H6.76317H6.75336H6.74357H6.73379H6.72403H6.71428H6.70454H6.69482H6.68511H6.67542H6.66574H6.65607H6.64642H6.63678H6.62716H6.61755H6.60796H6.59838H6.58881H6.57926H6.56972H6.5602H6.55069H6.54119H6.53171H6.52225H6.51279H6.50336H6.49393H6.48453H6.47513H6.46575H6.45639H6.44704H6.4377H6.42838H6.41908H6.40979H6.40051H6.39125H6.382H6.37277H6.36355H6.35434H6.34516H6.33598H6.32682H6.31768H6.30855H6.29944H6.29034H6.28125H6.27218H6.26313H6.25409H6.24506H6.23605H6.22706H6.21808H6.20911H6.20017H6.19123H6.18231H6.17341H6.16452H6.15564H6.14679H6.13794H6.12911H6.1203H6.1115H6.10272H6.09396H6.0852H6.07647H6.06775H6.05904H6.05035H6.04168H6.03302H6.02437H6.01575H6.00713H5.99854C5.23947 19.25 4.85505 18.6712 4.97367 18.2053C5.77214 15.0689 8.61621 12.75 12 12.75C15.3838 12.75 18.2279 15.0689 19.0263 18.2053Z" stroke="currentColor" stroke-width="1.5"/>
</svg>
